<svg width="136" height="37" viewBox="0 0 136 37" fill="none" xmlns="http://www.w3.org/2000/svg">
<path d="M54.2621 14.7323C53.8565 15.9056 53.4103 16.9978 52.9663 18.1688H52.8852C52.4344 16.9573 52.0355 15.9056 51.6321 14.7323L50.0929 10.7305H47.4223L51.6705 20.5537V26.3481H54.1788V20.5537L58.3796 10.7305H55.7991L54.2621 14.7323Z" fill="#FDD309"/>
<path d="M63.4458 14.3281C60.8157 14.3281 58.4291 16.5936 58.4291 20.4761C58.4291 24.3968 60.8157 26.6218 63.4458 26.6218C66.0758 26.6218 68.4624 24.3563 68.4624 20.4761C68.4624 16.5531 66.0758 14.3281 63.4458 14.3281ZM63.4458 24.3968C61.9088 24.3968 60.9667 22.8204 60.9667 20.5144C60.9667 18.1295 61.8682 16.5936 63.4458 16.5936C65.0233 16.5936 65.9541 18.17 65.9541 20.5144C65.9541 22.8587 64.9827 24.3968 63.4458 24.3968Z" fill="#FDD309"/>
<path d="M77.5671 22.6577C76.7581 23.7837 76.1518 24.2747 75.2211 24.2747C74.0943 24.2747 73.603 23.5473 73.603 21.606V14.6113H71.1239L71.0856 22.0429C71.0856 24.9931 72.0547 26.6911 74.3219 26.6911C75.7777 26.6911 76.8009 25.8826 77.7204 24.6643H77.8015L78.0043 26.3623H80.0326V14.6519H77.5671V22.6577Z" fill="#FDD309"/>
<path d="M89.4235 24.1935C87.0752 24.1935 85.5382 22.0518 85.5382 18.4937C85.5382 14.976 87.1969 12.8321 89.5047 12.8321C90.5549 12.8321 91.3639 13.3591 92.0941 14.127L93.4688 12.429C92.5786 11.3773 91.1633 10.4473 89.4641 10.4473C85.8222 10.4473 82.9488 13.4785 82.9894 18.5747C82.9894 23.7543 85.8222 26.6211 89.383 26.6211C91.1633 26.6211 92.6192 25.8127 93.7528 24.3556L92.3758 22.6576C91.6073 23.6282 90.6766 24.1935 89.4235 24.1935Z" fill="#34C2F4"/>
<path d="M99.1345 24.3966C98.8911 24.3966 98.6072 24.1939 98.6072 23.4958V9.51758H96.1394L96.18 23.3854C96.18 25.4122 96.7862 26.6598 98.5688 26.6598C99.0132 26.6853 99.4571 26.6026 99.8624 26.4189L99.5379 24.356C99.4056 24.386 99.2701 24.3996 99.1345 24.3966Z" fill="#34C2F4"/>
<path d="M106.619 14.3281C103.989 14.3281 101.602 16.5936 101.602 20.4761C101.602 24.3968 103.989 26.6218 106.619 26.6218C109.249 26.6218 111.635 24.3563 111.635 20.4761C111.635 16.5531 109.249 14.3281 106.619 14.3281ZM106.619 24.3968C105.082 24.3968 104.151 22.8204 104.151 20.5144C104.151 18.1295 105.041 16.5936 106.619 16.5936C108.196 16.5936 109.127 18.17 109.127 20.5144C109.127 22.8587 108.156 24.3968 106.619 24.3968Z" fill="#34C2F4"/>
<path d="M120.74 22.6577C119.931 23.7837 119.325 24.2747 118.394 24.2747C117.267 24.2747 116.776 23.5473 116.776 21.606V14.6113H114.297V22.0429C114.297 24.9931 115.268 26.6911 117.536 26.6911C118.991 26.6911 120.015 25.8826 120.934 24.6643H120.975L121.177 26.3623H123.206V14.6519H120.727L120.74 22.6577Z" fill="#34C2F4"/>
<path d="M133.201 9.47656V13.7216L133.282 15.6223C132.432 14.8138 131.704 14.3274 130.49 14.3274C128.184 14.3274 126.039 16.674 126.079 20.4731C126.079 24.3555 127.778 26.6188 130.408 26.6188C131.535 26.6188 132.635 25.9432 133.404 25.0829H133.485L133.651 26.3486H135.68V9.47656H133.201ZM133.201 23.0606C132.473 23.9502 131.785 24.3555 130.976 24.3555C129.437 24.3555 128.587 22.9818 128.587 20.5136C128.587 18.0454 129.714 16.6334 131.066 16.6334C131.756 16.6334 132.484 16.8744 133.212 17.604L133.201 23.0606Z" fill="#34C2F4"/>
<path d="M26.0644 1.69537e-06C22.2629 -0.00164368 18.5576 1.19439 15.4754 3.41804C12.3932 5.64168 10.091 8.77974 8.89614 12.386C6.06803 13.1663 3.61907 14.945 2.00348 17.3922C0.38789 19.8395 -0.284686 22.7892 0.110499 25.6943C0.505683 28.5993 1.94181 31.2626 4.15251 33.1901C6.36321 35.1176 9.19846 36.1786 12.1324 36.1762C14.3154 36.187 16.4597 35.5997 18.3322 34.4782C20.7859 35.6261 23.4662 36.2092 26.1755 36.1843C28.8847 36.1595 31.5539 35.5274 33.9861 34.3346C36.4184 33.1418 38.5518 31.4187 40.2289 29.2924C41.9061 27.1661 43.0844 24.6908 43.6769 22.049C44.2694 19.4071 44.261 16.666 43.6523 14.0278C43.0436 11.3897 41.8501 8.92161 40.1599 6.80564C38.4697 4.68967 36.3258 2.97972 33.8863 1.80186C31.4468 0.623999 28.7738 0.00824833 26.0644 1.69537e-06ZM36.5732 29.1499C34.7252 30.9087 30.9391 31.2173 28.5615 29.3256C27.6244 28.5659 26.8339 27.6417 26.229 26.5984C26.229 26.5984 24.1286 22.7182 21.6946 20.9684C20.3762 20.0023 19.4072 19.1668 18.1744 18.7704C17.9675 18.2389 17.6045 17.7824 17.133 17.4608C16.6616 17.1393 16.1039 16.9678 15.5331 16.9688C15.0986 16.9689 14.6698 17.0679 14.2793 17.2583C13.8888 17.4488 13.5469 17.7256 13.2795 18.0678C13.0412 17.9782 12.7882 17.9339 12.5335 17.9372C11.9501 17.939 11.3911 18.1714 10.9786 18.5836C10.5661 18.9958 10.3335 19.5544 10.3317 20.1374C9.77323 20.1969 9.25815 20.4659 8.89047 20.8902C8.52279 21.3145 8.3299 21.8623 8.35076 22.4232C8.35076 23.655 8.92319 24.754 10.6833 24.8418H18.1744C18.7034 24.8437 19.219 24.6764 19.646 24.3644L19.7249 24.2969L19.8015 24.2225C20.2365 23.7721 20.3762 23.1348 20.3762 22.4682C20.3955 22.1826 20.3674 21.8957 20.2928 21.6192C20.845 22.9119 21.2416 24.1437 21.174 25.4837C21.1344 26.0977 21.0123 26.7037 20.8112 27.2853L20.7909 27.3438C20.5158 28.0755 20.1517 28.7705 19.7069 29.4134C19.6663 29.4134 19.0939 30.1948 19.0533 30.2489L19.0376 30.2669C18.0662 31.3929 16.4549 32.323 14.7917 32.7869C14.0122 32.9902 13.2106 33.0969 12.4051 33.1044C7.8482 33.0189 3.72177 30.312 2.72791 24.2923C2.72791 24.2923 2.72791 24.2698 2.72791 24.2586C2.70537 23.9996 2.69636 23.7384 2.69636 23.4726C2.6954 22.9841 2.73232 22.4962 2.80679 22.0133C3.13161 19.9606 4.1087 18.0667 5.59366 16.6116C7.07863 15.1565 8.99266 14.2174 11.0529 13.9331C11.0529 13.9331 17.6989 12.2171 27.7299 19.8694C33.9635 24.432 39.0139 19.1082 36.1608 12.4919C36.1619 12.4867 36.1619 12.4813 36.1608 12.4761L36.1292 12.4378C35.9771 12.8253 35.7979 13.2015 35.5929 13.5638C34.0604 16.3383 29.1317 22.4435 19.0556 11.6293C19.0556 11.6293 15.1816 6.44974 11.0889 13.6089C11.3977 12.4378 12.8062 8.12748 16.2363 6.32362C16.2363 6.32362 19.0962 4.60985 24.2908 10.3254C24.4238 10.4606 28.3091 14.3295 31.8563 9.70613C31.8563 9.70613 35.9129 4.38465 24.7258 2.00879H24.7708C25.2554 1.966 30.5357 1.92096 34.4097 4.26079C38.8561 7.033 41.8467 11.9581 41.8467 17.4553C41.8442 19.6662 41.3729 21.8515 40.4639 23.8672C39.555 25.883 38.2289 27.6834 36.5732 29.1499Z" fill="#34C2F4"/>
</svg>
